<?xml version="1.0" encoding="UTF-8" standalone="no"?>
<!DOCTYPE svg PUBLIC "-//W3C//DTD SVG 1.1//EN"
 "http://www.w3.org/Graphics/SVG/1.1/DTD/svg11.dtd">
<!-- Generated by graphviz version 2.38.0 (20140413.2041)
 -->
<!-- Title: G Pages: 1 -->
<svg width="848pt" height="500pt"
 viewBox="0.00 0.00 847.96 500.00" xmlns="http://www.w3.org/2000/svg" xmlns:xlink="http://www.w3.org/1999/xlink">
<g id="graph0" class="graph" transform="scale(1 1) rotate(0) translate(4 496)">
<title>G</title>
<polygon fill="white" stroke="none" points="-4,4 -4,-496 843.956,-496 843.956,4 -4,4"/>
<g id="clust1" class="cluster"><title>cluster_Global</title>
<path fill="none" stroke="gray" d="M537.956,-8C537.956,-8 819.956,-8 819.956,-8 825.956,-8 831.956,-14 831.956,-20 831.956,-20 831.956,-472 831.956,-472 831.956,-478 825.956,-484 819.956,-484 819.956,-484 537.956,-484 537.956,-484 531.956,-484 525.956,-478 525.956,-472 525.956,-472 525.956,-20 525.956,-20 525.956,-14 531.956,-8 537.956,-8"/>
<text text-anchor="middle" x="678.956" y="-471.2" font-family="Times,serif" font-size="11.00" fill="gray">Global</text>
</g>
<g id="clust2" class="cluster"><title>cluster_\Bt</title>
<path fill="none" stroke="gray" d="M545.956,-16C545.956,-16 811.956,-16 811.956,-16 817.956,-16 823.956,-22 823.956,-28 823.956,-28 823.956,-444 823.956,-444 823.956,-450 817.956,-456 811.956,-456 811.956,-456 545.956,-456 545.956,-456 539.956,-456 533.956,-450 533.956,-444 533.956,-444 533.956,-28 533.956,-28 533.956,-22 539.956,-16 545.956,-16"/>
<text text-anchor="middle" x="678.956" y="-443.2" font-family="Times,serif" font-size="11.00" fill="gray">Bt</text>
</g>
<g id="clust3" class="cluster"><title>cluster_\Bt\Bundle</title>
<path fill="none" stroke="gray" d="M553.956,-24C553.956,-24 803.956,-24 803.956,-24 809.956,-24 815.956,-30 815.956,-36 815.956,-36 815.956,-416 815.956,-416 815.956,-422 809.956,-428 803.956,-428 803.956,-428 553.956,-428 553.956,-428 547.956,-428 541.956,-422 541.956,-416 541.956,-416 541.956,-36 541.956,-36 541.956,-30 547.956,-24 553.956,-24"/>
<text text-anchor="middle" x="678.956" y="-415.2" font-family="Times,serif" font-size="11.00" fill="gray">Bundle</text>
</g>
<g id="clust4" class="cluster"><title>cluster_\Bt\Bundle\CustomMessageExceptionBundle</title>
<path fill="none" stroke="gray" d="M561.956,-32C561.956,-32 795.956,-32 795.956,-32 801.956,-32 807.956,-38 807.956,-44 807.956,-44 807.956,-388 807.956,-388 807.956,-394 801.956,-400 795.956,-400 795.956,-400 561.956,-400 561.956,-400 555.956,-400 549.956,-394 549.956,-388 549.956,-388 549.956,-44 549.956,-44 549.956,-38 555.956,-32 561.956,-32"/>
<text text-anchor="middle" x="678.956" y="-387.2" font-family="Times,serif" font-size="11.00" fill="gray">CustomMessageExceptionBundle</text>
</g>
<g id="clust5" class="cluster"><title>cluster_\Bt\Bundle\CustomMessageExceptionBundle\DependencyInjection</title>
<path fill="none" stroke="gray" d="M569.956,-246C569.956,-246 787.956,-246 787.956,-246 793.956,-246 799.956,-252 799.956,-258 799.956,-258 799.956,-360 799.956,-360 799.956,-366 793.956,-372 787.956,-372 787.956,-372 569.956,-372 569.956,-372 563.956,-372 557.956,-366 557.956,-360 557.956,-360 557.956,-258 557.956,-258 557.956,-252 563.956,-246 569.956,-246"/>
<text text-anchor="middle" x="678.956" y="-359.2" font-family="Times,serif" font-size="11.00" fill="gray">DependencyInjection</text>
</g>
<g id="clust6" class="cluster"><title>cluster_\Bt\Bundle\CustomMessageExceptionBundle\Listener</title>
<path fill="none" stroke="gray" d="M617.456,-166C617.456,-166 740.456,-166 740.456,-166 746.456,-166 752.456,-172 752.456,-178 752.456,-178 752.456,-226 752.456,-226 752.456,-232 746.456,-238 740.456,-238 740.456,-238 617.456,-238 617.456,-238 611.456,-238 605.456,-232 605.456,-226 605.456,-226 605.456,-178 605.456,-178 605.456,-172 611.456,-166 617.456,-166"/>
<text text-anchor="middle" x="678.956" y="-225.2" font-family="Times,serif" font-size="11.00" fill="gray">Listener</text>
</g>
<g id="clust7" class="cluster"><title>cluster_\Bt\Bundle\CustomMessageExceptionBundle\Exception</title>
<path fill="none" stroke="gray" d="M623.956,-86C623.956,-86 733.956,-86 733.956,-86 739.956,-86 745.956,-92 745.956,-98 745.956,-98 745.956,-146 745.956,-146 745.956,-152 739.956,-158 733.956,-158 733.956,-158 623.956,-158 623.956,-158 617.956,-158 611.956,-152 611.956,-146 611.956,-146 611.956,-98 611.956,-98 611.956,-92 617.956,-86 623.956,-86"/>
<text text-anchor="middle" x="678.956" y="-145.2" font-family="Times,serif" font-size="11.00" fill="gray">Exception</text>
</g>
<!-- \\Bt\\Bundle\\CustomMessageExceptionBundle\\DependencyInjection\\CustomMessageExceptionExtension -->
<g id="node1" class="node"><title>\\Bt\\Bundle\\CustomMessageExceptionBundle\\DependencyInjection\\CustomMessageExceptionExtension</title>
<polygon fill="none" stroke="black" points="791.956,-344 565.956,-344 565.956,-308 791.956,-308 791.956,-344"/>
<text text-anchor="middle" x="678.956" y="-323.2" font-family="Courier,monospace" font-size="11.00">CustomMessageExceptionExtension</text>
</g>
<!-- \\Symfony\\Component\\HttpKernel\\DependencyInjection\\Extension -->
<g id="node6" class="node"><title>\\Symfony\\Component\\HttpKernel\\DependencyInjection\\Extension</title>
<ellipse fill="none" stroke="black" cx="246.978" cy="-326" rx="246.956" ry="18"/>
<text text-anchor="middle" x="246.978" y="-322.3" font-family="Times,serif" font-size="14.00" fill="gray">\Symfony\Component\HttpKernel\DependencyInjection\Extension</text>
</g>
<!-- \\Bt\\Bundle\\CustomMessageExceptionBundle\\DependencyInjection\\CustomMessageExceptionExtension&#45;&gt;\\Symfony\\Component\\HttpKernel\\DependencyInjection\\Extension -->
<g id="edge1" class="edge"><title>\\Bt\\Bundle\\CustomMessageExceptionBundle\\DependencyInjection\\CustomMessageExceptionExtension&#45;&gt;\\Symfony\\Component\\HttpKernel\\DependencyInjection\\Extension</title>
<path fill="none" stroke="black" d="M565.827,-326C546.494,-326 525.709,-326 504.359,-326"/>
<polygon fill="none" stroke="black" points="504.176,-322.5 494.176,-326 504.176,-329.5 504.176,-322.5"/>
</g>
<!-- \\Bt\\Bundle\\CustomMessageExceptionBundle\\DependencyInjection\\Configuration -->
<g id="node2" class="node"><title>\\Bt\\Bundle\\CustomMessageExceptionBundle\\DependencyInjection\\Configuration</title>
<polygon fill="none" stroke="black" points="730.956,-290 626.956,-290 626.956,-254 730.956,-254 730.956,-290"/>
<text text-anchor="middle" x="678.956" y="-269.2" font-family="Courier,monospace" font-size="11.00">Configuration</text>
</g>
<!-- \\Symfony\\Component\\Config\\Definition\\ConfigurationInterface -->
<g id="node8" class="node"><title>\\Symfony\\Component\\Config\\Definition\\ConfigurationInterface</title>
<ellipse fill="none" stroke="black" cx="246.978" cy="-272" rx="237.758" ry="18"/>
<text text-anchor="middle" x="246.978" y="-268.3" font-family="Times,serif" font-size="14.00" fill="gray">\Symfony\Component\Config\Definition\ConfigurationInterface</text>
</g>
<!-- \\Bt\\Bundle\\CustomMessageExceptionBundle\\DependencyInjection\\Configuration&#45;&gt;\\Symfony\\Component\\Config\\Definition\\ConfigurationInterface -->
<g id="edge3" class="edge"><title>\\Bt\\Bundle\\CustomMessageExceptionBundle\\DependencyInjection\\Configuration&#45;&gt;\\Symfony\\Component\\Config\\Definition\\ConfigurationInterface</title>
<path fill="none" stroke="black" stroke-dasharray="1,5" d="M626.944,-272C592.845,-272 545.198,-272 495.171,-272"/>
<polygon fill="none" stroke="black" points="495.137,-268.5 485.137,-272 495.137,-275.5 495.137,-268.5"/>
</g>
<!-- \\Bt\\Bundle\\CustomMessageExceptionBundle\\Listener\\ExceptionListener -->
<g id="node3" class="node"><title>\\Bt\\Bundle\\CustomMessageExceptionBundle\\Listener\\ExceptionListener</title>
<polygon fill="none" stroke="black" points="744.456,-210 613.456,-210 613.456,-174 744.456,-174 744.456,-210"/>
<text text-anchor="middle" x="678.956" y="-189.2" font-family="Courier,monospace" font-size="11.00">ExceptionListener</text>
</g>
<!-- \\Bt\\Bundle\\CustomMessageExceptionBundle\\Exception\\CustomException -->
<g id="node4" class="node"><title>\\Bt\\Bundle\\CustomMessageExceptionBundle\\Exception\\CustomException</title>
<polygon fill="none" stroke="black" points="737.956,-130 619.956,-130 619.956,-94 737.956,-94 737.956,-130"/>
<text text-anchor="middle" x="678.956" y="-109.2" font-family="Courier,monospace" font-size="11.00">CustomException</text>
</g>
<!-- \\Exception -->
<g id="node9" class="node"><title>\\Exception</title>
<ellipse fill="none" stroke="black" cx="246.978" cy="-112" rx="48.9926" ry="18"/>
<text text-anchor="middle" x="246.978" y="-108.3" font-family="Times,serif" font-size="14.00" fill="gray">\Exception</text>
</g>
<!-- \\Bt\\Bundle\\CustomMessageExceptionBundle\\Exception\\CustomException&#45;&gt;\\Exception -->
<g id="edge4" class="edge"><title>\\Bt\\Bundle\\CustomMessageExceptionBundle\\Exception\\CustomException&#45;&gt;\\Exception</title>
<path fill="none" stroke="black" d="M619.52,-112C537.276,-112 388.27,-112 306.162,-112"/>
<polygon fill="none" stroke="black" points="306.005,-108.5 296.005,-112 306.005,-115.5 306.005,-108.5"/>
</g>
<!-- \\Bt\\Bundle\\CustomMessageExceptionBundle\\CustomMessageExceptionBundle -->
<g id="node5" class="node"><title>\\Bt\\Bundle\\CustomMessageExceptionBundle\\CustomMessageExceptionBundle</title>
<polygon fill="none" stroke="black" points="781.956,-76 575.956,-76 575.956,-40 781.956,-40 781.956,-76"/>
<text text-anchor="middle" x="678.956" y="-55.2" font-family="Courier,monospace" font-size="11.00">CustomMessageExceptionBundle</text>
</g>
<!-- \\Symfony\\Component\\HttpKernel\\Bundle\\Bundle -->
<g id="node7" class="node"><title>\\Symfony\\Component\\HttpKernel\\Bundle\\Bundle</title>
<ellipse fill="none" stroke="black" cx="246.978" cy="-58" rx="187.367" ry="18"/>
<text text-anchor="middle" x="246.978" y="-54.3" font-family="Times,serif" font-size="14.00" fill="gray">\Symfony\Component\HttpKernel\Bundle\Bundle</text>
</g>
<!-- \\Bt\\Bundle\\CustomMessageExceptionBundle\\CustomMessageExceptionBundle&#45;&gt;\\Symfony\\Component\\HttpKernel\\Bundle\\Bundle -->
<g id="edge2" class="edge"><title>\\Bt\\Bundle\\CustomMessageExceptionBundle\\CustomMessageExceptionBundle&#45;&gt;\\Symfony\\Component\\HttpKernel\\Bundle\\Bundle</title>
<path fill="none" stroke="black" d="M575.785,-58C536.415,-58 490.003,-58 444.683,-58"/>
<polygon fill="none" stroke="black" points="444.423,-54.5001 434.423,-58 444.422,-61.5001 444.423,-54.5001"/>
</g>
</g>
</svg>
